<?xml version="1.0" encoding="UTF-8" standalone="no"?>
<!-- Created with Inkscape (http://www.inkscape.org/) -->

<svg
   xmlns:dc="http://purl.org/dc/elements/1.1/"
   xmlns:cc="http://creativecommons.org/ns#"
   xmlns:rdf="http://www.w3.org/1999/02/22-rdf-syntax-ns#"
   xmlns:svg="http://www.w3.org/2000/svg"
   xmlns="http://www.w3.org/2000/svg"
   xmlns:sodipodi="http://sodipodi.sourceforge.net/DTD/sodipodi-0.dtd"
   xmlns:inkscape="http://www.inkscape.org/namespaces/inkscape"
   width="96"
   height="96"
   id="svg4874"
   version="1.1"
   inkscape:version="0.92.1 r15371"
   viewBox="0 0 96 96.000001"
   sodipodi:docname="edit.svg">
  <defs
     id="defs4876" />
  <sodipodi:namedview
     id="base"
     pagecolor="#ffffff"
     bordercolor="#666666"
     borderopacity="1.0"
     inkscape:pageopacity="0.0"
     inkscape:pageshadow="2"
     inkscape:zoom="7.024999"
     inkscape:cx="21.551599"
     inkscape:cy="27.352299"
     inkscape:document-units="px"
     inkscape:current-layer="g4780"
     showgrid="false"
     showborder="true"
     fit-margin-top="0"
     fit-margin-left="0"
     fit-margin-right="0"
     fit-margin-bottom="0"
     inkscape:snap-bbox="true"
     inkscape:bbox-paths="true"
     inkscape:bbox-nodes="true"
     inkscape:snap-bbox-edge-midpoints="true"
     inkscape:snap-bbox-midpoints="true"
     inkscape:object-paths="true"
     inkscape:snap-intersection-paths="true"
     inkscape:object-nodes="true"
     inkscape:snap-smooth-nodes="true"
     inkscape:snap-midpoints="true"
     inkscape:snap-object-midpoints="true"
     inkscape:snap-center="true"
     showguides="true"
     inkscape:guide-bbox="true"
     inkscape:snap-global="true"
     inkscape:window-width="1920"
     inkscape:window-height="1020"
     inkscape:window-x="0"
     inkscape:window-y="28"
     inkscape:window-maximized="1">
    <inkscape:grid
       type="xygrid"
       id="grid5451"
       empspacing="8" />
    <sodipodi:guide
       orientation="1,0"
       position="8,-8.0000001"
       id="guide4063"
       inkscape:locked="false" />
    <sodipodi:guide
       orientation="1,0"
       position="4,-8.0000001"
       id="guide4065"
       inkscape:locked="false" />
    <sodipodi:guide
       orientation="0,1"
       position="-8,88.000001"
       id="guide4067"
       inkscape:locked="false" />
    <sodipodi:guide
       orientation="0,1"
       position="-8,92.000001"
       id="guide4069"
       inkscape:locked="false" />
    <sodipodi:guide
       orientation="0,1"
       position="104,4"
       id="guide4071"
       inkscape:locked="false" />
    <sodipodi:guide
       orientation="0,1"
       position="-5,8.0000001"
       id="guide4073"
       inkscape:locked="false" />
    <sodipodi:guide
       orientation="1,0"
       position="92,-8.0000001"
       id="guide4075"
       inkscape:locked="false" />
    <sodipodi:guide
       orientation="1,0"
       position="88,-8.0000001"
       id="guide4077"
       inkscape:locked="false" />
    <sodipodi:guide
       orientation="0,1"
       position="-8,84.000001"
       id="guide4074"
       inkscape:locked="false" />
    <sodipodi:guide
       orientation="1,0"
       position="12,-8.0000001"
       id="guide4076"
       inkscape:locked="false" />
    <sodipodi:guide
       orientation="0,1"
       position="-5,12"
       id="guide4078"
       inkscape:locked="false" />
    <sodipodi:guide
       orientation="1,0"
       position="84,-9.0000001"
       id="guide4080"
       inkscape:locked="false" />
    <sodipodi:guide
       position="48,-8.0000001"
       orientation="1,0"
       id="guide4170"
       inkscape:locked="false" />
    <sodipodi:guide
       position="-8,48"
       orientation="0,1"
       id="guide4172"
       inkscape:locked="false" />
  </sodipodi:namedview>
  <metadata
     id="metadata4879">
    <rdf:RDF>
      <cc:Work
         rdf:about="">
        <dc:format>image/svg+xml</dc:format>
        <dc:type
           rdf:resource="http://purl.org/dc/dcmitype/StillImage" />
        <dc:title />
      </cc:Work>
    </rdf:RDF>
  </metadata>
  <g
     inkscape:label="Layer 1"
     inkscape:groupmode="layer"
     id="layer1"
     transform="translate(67.857146,-78.50504)">
    <g
       transform="matrix(0,-1,-1,0,373.50506,516.50504)"
       id="g4845"
       style="display:inline">
      <g
         inkscape:export-ydpi="90"
         inkscape:export-xdpi="90"
         inkscape:export-filename="next01.png"
         transform="matrix(-0.9996045,0,0,1,575.94296,-611.00001)"
         id="g4778"
         inkscape:label="Layer 1">
        <g
           transform="matrix(-1,0,0,1,575.99999,611)"
           id="g4780"
           style="display:inline">
          <rect
             style="color:#000000;display:inline;overflow:visible;visibility:visible;fill:none;stroke:none;stroke-width:4;marker:none;enable-background:accumulate"
             id="rect4782"
             width="96.037987"
             height="96"
             x="-438.00244"
             y="345.36221"
             transform="scale(-1,1)" />
          <path
             style="font-style:normal;font-variant:normal;font-weight:normal;font-stretch:normal;font-size:15px;line-height:125%;font-family:Ubuntu;-inkscape-font-specification:Ubuntu;text-align:center;letter-spacing:0px;word-spacing:0px;writing-mode:lr-tb;text-anchor:middle;fill:#808080;fill-opacity:1;stroke:none"
             d="m 364.0904,368.96573 c -0.0215,-0.0161 -0.0354,-0.0404 -0.0567,-0.0566 -0.0253,-0.0201 -0.057,-0.0305 -0.0821,-0.0508 z"
             id="path4157" />
          <path
             style="font-style:normal;font-variant:normal;font-weight:normal;font-stretch:normal;font-size:15px;line-height:125%;font-family:Ubuntu;-inkscape-font-specification:Ubuntu;text-align:center;letter-spacing:0px;word-spacing:0px;writing-mode:lr-tb;text-anchor:middle;fill:#808080;fill-opacity:1;stroke:none"
             d="m 364.07673,417.80167 -0.13873,0.10742 c 0.0251,-0.0203 0.0569,-0.0307 0.0821,-0.0508 0.0214,-0.0162 0.0353,-0.0405 0.0567,-0.0566 z"
             id="path4344" />
          <path
             style="color:#000000;display:inline;overflow:visible;visibility:visible;fill:#808080;fill-opacity:1;fill-rule:nonzero;stroke:none;stroke-width:7.49851656;marker:none;enable-background:accumulate"
             d="M 73.474609 8.0058594 L 18.333984 63.923828 L 18.248047 64.064453 C 18.005787 64.45113 16.664719 66.691559 14.792969 70.496094 C 12.921219 74.300638 10.617605 79.508457 8.765625 85.347656 L 7.890625 88.103516 L 10.648438 87.232422 C 16.492718 85.380035 21.703733 83.074485 25.507812 81.203125 C 29.311892 79.331775 31.549084 77.990865 31.933594 77.75 L 32.074219 77.666016 L 87.994141 22.529297 L 74.542969 9.0722656 L 73.474609 8.0058594 z M 68 60 L 68 64 L 88 64 L 88 60 L 68 60 z M 20.619141 65.958984 L 30.039062 75.380859 C 29.741627 75.558259 27.613295 76.823574 24.181641 78.511719 C 22.53428 79.322111 20.557327 80.203146 18.400391 81.091797 L 14.90625 77.597656 C 15.793924 75.442282 16.674151 73.467187 17.484375 71.820312 C 19.172169 68.389683 20.439857 66.259428 20.619141 65.958984 z "
             transform="matrix(0,-1,-1.0003957,0,438.00245,441.36222)"
             id="rect3972-1" />
          <rect
             style="color:#000000;display:inline;overflow:visible;visibility:visible;fill:#808080;fill-opacity:1;fill-rule:nonzero;stroke:none;stroke-width:7.5;marker:none;enable-background:accumulate"
             id="rect3974-0"
             width="32.000008"
             height="4.0015807"
             x="-385.36221"
             y="-365.97397"
             transform="matrix(0,-1,-1,0,0,0)" />
          <rect
             style="color:#000000;display:inline;overflow:visible;visibility:visible;fill:#808080;fill-opacity:1;fill-rule:nonzero;stroke:none;stroke-width:7.5;marker:none;enable-background:accumulate"
             id="rect3976-5"
             width="43.999897"
             height="4.0014324"
             x="-397.36221"
             y="-353.96921"
             transform="matrix(0,-1,-1,0,0,0)" />
          <path
             style="opacity:0.56099997;fill:#e3e2db;fill-opacity:1;stroke:none;stroke-width:1;stroke-linecap:round;stroke-linejoin:miter;stroke-miterlimit:4;stroke-dasharray:none;stroke-opacity:1"
             d="m 8.0284654,87.881627 c 0,-0.292459 2.3690606,-7.102869 3.1925586,-9.177744 1.69304,-4.265764 4.028364,-9.194232 6.158364,-12.996611 L 18.348752,63.976809 42.473441,39.515098 C 55.742021,26.061157 68.15078,13.483992 70.048461,11.565842 l 3.450331,-3.4875447 7.1938,7.1882167 c 3.95659,3.953519 7.177727,7.227502 7.158081,7.275518 -0.01964,0.04801 -12.610288,12.483475 -27.979204,27.634352 l -27.943484,27.547052 -1.965223,1.08521 C 24.472493,81.840407 18.183787,84.60693 12.085405,86.673235 8.7050752,87.818586 8.0284654,88.020121 8.0284654,87.881627 Z M 20.732724,80.159629 C 23.84979,78.792421 28.654417,76.363561 29.836,75.557692 30.046333,75.41424 29.462081,74.777441 25.333584,70.650323 l -4.744112,-4.742527 -0.538433,0.90732 c -0.9252,1.559063 -3.3835,6.505901 -4.329417,8.712085 l -0.905028,2.110816 1.763943,1.768188 c 0.970168,0.972504 1.780751,1.768188 1.801296,1.768188 0.02054,0 1.078445,-0.456643 2.350891,-1.014764 z"
             id="path4158"
             inkscape:connector-curvature="0"
             transform="matrix(0,-1,-1.0003957,0,438.00245,441.36222)" />
          <path
             style="opacity:0.56099997;fill:#e3e2db;fill-opacity:1;stroke:none;stroke-width:1;stroke-linecap:round;stroke-linejoin:miter;stroke-miterlimit:4;stroke-dasharray:none;stroke-opacity:1"
             d="m 68.099648,62.028483 0,-1.921708 9.89324,0 9.89324,0 0,1.921708 0,1.921708 -9.89324,0 -9.89324,0 0,-1.921708 z"
             id="path4160"
             inkscape:connector-curvature="0"
             transform="matrix(0,-1,-1.0003957,0,438.00245,441.36222)" />
          <path
             style="opacity:0.56099997;fill:#e3e2db;fill-opacity:1;stroke:none;stroke-width:1;stroke-linecap:round;stroke-linejoin:miter;stroke-miterlimit:4;stroke-dasharray:none;stroke-opacity:1"
             d="m 56.000002,73.98578 0,-1.921708 15.943063,0 15.943063,0 0,1.921708 0,1.921708 -15.943063,0 -15.943063,0 0,-1.921708 z"
             id="path4162"
             inkscape:connector-curvature="0"
             transform="matrix(0,-1,-1.0003957,0,438.00245,441.36222)" />
          <path
             style="opacity:0.56099997;fill:#e2e3db;fill-opacity:1;stroke:none;stroke-width:1;stroke-linecap:round;stroke-linejoin:miter;stroke-miterlimit:4;stroke-dasharray:none;stroke-opacity:1"
             d="m 44.042705,86.014252 0,-1.992883 21.921712,0 21.921711,0 0,1.992883 0,1.992882 -21.921711,0 -21.921712,0 0,-1.992882 z"
             id="path4164"
             inkscape:connector-curvature="0"
             transform="matrix(0,-1,-1.0003957,0,438.00245,441.36222)" />
          <path
             style="opacity:0.56099997;fill:#333333;fill-opacity:1;stroke:none;stroke-width:1;stroke-linecap:round;stroke-linejoin:miter;stroke-miterlimit:4;stroke-dasharray:none;stroke-opacity:1"
             d="m 8.0284654,87.822132 c 0,-0.725902 3.1083556,-9.383578 3.3216476,-9.251756 0.07629,0.04715 0.09916,0.02173 0.05081,-0.05649 -0.156909,-0.253885 1.346718,-3.811584 1.537721,-3.638371 0.06472,0.05869 0.07242,0.02799 0.01712,-0.06823 -0.136092,-0.236788 1.752983,-4.332092 1.943878,-4.214112 0.08242,0.05094 0.105609,0.02298 0.05237,-0.06316 -0.129086,-0.208866 0.346465,-1.181041 0.524037,-1.071296 0.07922,0.04896 0.09616,0.0147 0.0387,-0.07827 -0.09423,-0.152469 0.972208,-2.290076 2.185497,-4.380693 0.558458,-0.962278 6.070647,-6.796327 6.292078,-6.659476 0.07073,0.04372 0.111005,0.01875 0.08949,-0.05547 -0.02151,-0.07423 1.846682,-2.048739 4.151545,-4.387806 2.304865,-2.339066 8.326218,-8.448761 13.380785,-13.577101 5.054569,-5.128339 10.081399,-10.234178 11.170733,-11.346307 1.089336,-1.11213 2.035763,-1.987968 2.103172,-1.946307 0.06741,0.04166 0.104961,0.01837 0.08345,-0.05176 -0.05638,-0.183788 10.302147,-10.715997 10.449633,-10.624845 0.06781,0.04191 0.105688,0.01932 0.08418,-0.0502 -0.02151,-0.06952 1.75448,-1.962813 3.946651,-4.207322 l 3.985765,-4.0809251 7.224201,7.2211291 c 3.97331,3.971621 7.2242,7.280083 7.2242,7.352139 0,0.07205 -0.0436,0.08741 -0.09689,0.03412 -0.120205,-0.120207 -0.914495,0.621839 -0.823398,0.769238 0.07309,0.118257 -11.796284,11.832492 -11.985886,11.829228 -0.183566,-0.0032 -0.618088,0.430068 -0.546894,0.545265 0.06892,0.111519 -9.834147,9.866864 -9.944305,9.795965 -0.108336,-0.06973 -0.799258,0.628778 -0.731076,0.739101 0.06775,0.109615 -9.600726,9.625118 -9.737705,9.58364 -0.135845,-0.04113 -0.581337,0.409975 -0.513409,0.519882 0.06785,0.109791 -9.160957,9.193594 -9.392682,9.2451 -0.22756,0.05058 -0.639807,0.46682 -0.571616,0.577155 0.07919,0.128134 -9.453694,9.469786 -9.663641,9.469786 -0.08591,0 -0.159115,0.09609 -0.162674,0.213523 -0.0036,0.117438 -0.08839,0.195922 -0.188516,0.174409 -0.100127,-0.02151 -0.148217,0.01563 -0.106867,0.08253 0.173853,0.2813 -1.481576,1.611619 -3.185692,2.56005 -3.797579,2.113556 -10.691745,5.375992 -11.061051,5.234277 -0.109609,-0.04206 -0.165555,-0.02189 -0.124324,0.04482 0.0997,0.161314 -4.739242,2.048213 -4.997995,1.94892 -0.110839,-0.04253 -0.165441,-0.01895 -0.121337,0.05242 0.06508,0.105305 -5.4279488,2.003484 -5.7949401,2.002507 -0.058719,-1.57e-4 -0.1067615,-0.08354 -0.1067615,-0.185287 z M 19.456244,80.663224 c 0.486965,-0.202852 1.355513,-0.587194 1.930107,-0.854092 0.574595,-0.2669 1.074642,-0.485273 1.111217,-0.485273 0.120609,0 4.504593,-2.236022 6.058778,-3.090239 l 1.524319,-0.837803 -4.742416,-4.74083 -4.742416,-4.740832 -0.498354,0.904139 c -0.274095,0.497277 -0.708542,1.304496 -0.965438,1.79382 -0.256896,0.489324 -0.525996,0.88968 -0.598,0.88968 -0.072,0 -0.09133,0.06406 -0.04294,0.142348 0.04839,0.07829 0.0095,0.142349 -0.0865,0.142349 -0.09596,0 -0.134644,0.03983 -0.08596,0.08851 0.08315,0.08315 -0.544821,1.465303 -0.735887,1.619674 -0.04845,0.03915 -0.100519,0.135232 -0.115706,0.213524 -0.09029,0.46547 -1.875602,4.172256 -1.968907,4.087987 -0.06225,-0.05622 -0.07119,-0.02877 -0.01987,0.06101 0.123168,0.215465 -0.245365,1.083106 -0.400263,0.942343 -0.06605,-0.06002 -0.07433,-0.02957 -0.01839,0.06768 0.05593,0.09724 0.03726,0.289415 -0.0415,0.427047 -0.119677,0.209131 0.141773,0.536687 1.591583,1.99401 0.954132,0.959075 1.785718,1.743772 1.847971,1.743772 0.06225,0 0.511613,-0.165968 0.998578,-0.36882 z"
             id="path4166"
             inkscape:connector-curvature="0"
             transform="matrix(0,-1,-1.0003957,0,438.00245,441.36222)" />
          <path
             style="opacity:0.56099997;fill:#333333;fill-opacity:1;stroke:none;stroke-width:1;stroke-linecap:round;stroke-linejoin:miter;stroke-miterlimit:4;stroke-dasharray:none;stroke-opacity:1"
             d="m 67.9573,61.956347 0,-1.993844 10.000001,0.03655 10.000001,0.03655 0.0396,1.957296 0.0396,1.957295 -10.039606,0 -10.039605,0 0,-1.993844 z"
             id="path4168"
             inkscape:connector-curvature="0"
             transform="matrix(0,-1,-1.0003957,0,438.00245,441.36222)" />
          <path
             style="opacity:0.56099997;fill:#333333;fill-opacity:1;stroke:none;stroke-width:1;stroke-linecap:round;stroke-linejoin:miter;stroke-miterlimit:4;stroke-dasharray:none;stroke-opacity:1"
             d="m 56.000002,74.056954 0,-1.992882 16.014238,0 16.014237,0 0,1.992882 0,1.992883 -16.014237,0 -16.014238,0 0,-1.992883 z"
             id="path4170"
             inkscape:connector-curvature="0"
             transform="matrix(0,-1,-1.0003957,0,438.00245,441.36222)" />
          <path
             style="opacity:0.56099997;fill:#333333;fill-opacity:1;stroke:none;stroke-width:1;stroke-linecap:round;stroke-linejoin:miter;stroke-miterlimit:4;stroke-dasharray:none;stroke-opacity:1"
             d="m 44.042705,86.014252 0,-1.992883 21.992886,0 21.992886,0 0,1.992883 0,1.992882 -21.992886,0 -21.992886,0 0,-1.992882 z"
             id="path4172"
             inkscape:connector-curvature="0"
             transform="matrix(0,-1,-1.0003957,0,438.00245,441.36222)" />
        </g>
      </g>
    </g>
  </g>
</svg>
