<?xml version="1.0" encoding="UTF-8" standalone="no"?>
<!-- Created with Inkscape (http://www.inkscape.org/) -->

<svg
   xmlns:dc="http://purl.org/dc/elements/1.1/"
   xmlns:cc="http://creativecommons.org/ns#"
   xmlns:rdf="http://www.w3.org/1999/02/22-rdf-syntax-ns#"
   xmlns:svg="http://www.w3.org/2000/svg"
   xmlns="http://www.w3.org/2000/svg"
   xmlns:sodipodi="http://sodipodi.sourceforge.net/DTD/sodipodi-0.dtd"
   xmlns:inkscape="http://www.inkscape.org/namespaces/inkscape"
   width="96"
   height="96"
   id="svg4874"
   version="1.1"
   inkscape:version="0.91 r13725"
   viewBox="0 0 96 96.000001"
   sodipodi:docname="go-up.svg">
  <defs
     id="defs4876">
    <clipPath
       clipPathUnits="userSpaceOnUse"
       id="clipPath16">
      <path
         d="m 0,595.28 841.89,0 L 841.89,0 0,0 0,595.28 Z"
         id="path18"
         inkscape:connector-curvature="0" />
    </clipPath>
  </defs>
  <sodipodi:namedview
     id="base"
     pagecolor="#ffffff"
     bordercolor="#666666"
     borderopacity="1.0"
     inkscape:pageopacity="0.0"
     inkscape:pageshadow="2"
     inkscape:zoom="6.0446292"
     inkscape:cx="46.847491"
     inkscape:cy="39.356301"
     inkscape:document-units="px"
     inkscape:current-layer="layer1"
     showgrid="true"
     showborder="true"
     fit-margin-top="0"
     fit-margin-left="0"
     fit-margin-right="0"
     fit-margin-bottom="0"
     inkscape:snap-bbox="true"
     inkscape:bbox-paths="true"
     inkscape:bbox-nodes="true"
     inkscape:snap-bbox-edge-midpoints="true"
     inkscape:snap-bbox-midpoints="true"
     inkscape:object-paths="true"
     inkscape:snap-intersection-paths="true"
     inkscape:object-nodes="true"
     inkscape:snap-smooth-nodes="true"
     inkscape:snap-midpoints="true"
     inkscape:snap-object-midpoints="true"
     inkscape:snap-center="true"
     showguides="true"
     inkscape:guide-bbox="true"
     inkscape:snap-global="true"
     inkscape:window-width="1847"
     inkscape:window-height="1053"
     inkscape:window-x="73"
     inkscape:window-y="27"
     inkscape:window-maximized="1">
    <inkscape:grid
       type="xygrid"
       id="grid5451"
       empspacing="8" />
    <sodipodi:guide
       orientation="1,0"
       position="8,-8.0000001"
       id="guide4063" />
    <sodipodi:guide
       orientation="1,0"
       position="4,-8.0000001"
       id="guide4065" />
    <sodipodi:guide
       orientation="0,1"
       position="-8,88.000001"
       id="guide4067" />
    <sodipodi:guide
       orientation="0,1"
       position="-8,92.000001"
       id="guide4069" />
    <sodipodi:guide
       orientation="0,1"
       position="104,4"
       id="guide4071" />
    <sodipodi:guide
       orientation="0,1"
       position="-5,8.0000001"
       id="guide4073" />
    <sodipodi:guide
       orientation="1,0"
       position="88,-8.0000001"
       id="guide4077" />
    <sodipodi:guide
       orientation="0,1"
       position="-8,84.000001"
       id="guide4074" />
    <sodipodi:guide
       orientation="1,0"
       position="12,-8.0000001"
       id="guide4076" />
    <sodipodi:guide
       orientation="1,0"
       position="84,-8.0000001"
       id="guide4080" />
    <sodipodi:guide
       position="48,-8.0000001"
       orientation="1,0"
       id="guide4170" />
    <sodipodi:guide
       position="-8,48"
       orientation="0,1"
       id="guide4172" />
    <sodipodi:guide
       position="92,-8.0000001"
       orientation="1,0"
       id="guide4760" />
    <sodipodi:guide
       position="104,12"
       orientation="0,1"
       id="guide4207" />
  </sodipodi:namedview>
  <metadata
     id="metadata4879">
    <rdf:RDF>
      <cc:Work
         rdf:about="">
        <dc:format>image/svg+xml</dc:format>
        <dc:type
           rdf:resource="http://purl.org/dc/dcmitype/StillImage" />
        <dc:title></dc:title>
      </cc:Work>
    </rdf:RDF>
  </metadata>
  <g
     inkscape:label="Layer 1"
     inkscape:groupmode="layer"
     id="layer1"
     transform="translate(67.857146,-78.50504)">
    <g
       transform="matrix(0,1,-1,0,106.64791,146.36219)"
       id="g5743"
       inkscape:label="Layer 1">
      <g
         style="display:inline"
         id="g5745"
         transform="matrix(0,-1,-1,0,373.50506,516.50504)">
        <g
           inkscape:label="Layer 1"
           id="g5747"
           transform="matrix(-0.9996045,0,0,1,575.94296,-611.00001)"
           inkscape:export-filename="next01.png"
           inkscape:export-xdpi="90"
           inkscape:export-ydpi="90">
          <g
             style="display:inline"
             id="g5749"
             transform="matrix(-1,0,0,1,575.99999,611)">
            <path
               inkscape:connector-curvature="0"
               id="path5751"
               d="m 437.00209,379.49587 c -5.24691,4.1449 -10.54573,8.128 -15.94494,11.7914 -6.00476,4.0757 -11.8322,7.7257 -17.4773,10.9536 -5.20923,2.9783 -9.64507,5.2206 -13.59532,7.0003 -3.95086,-1.7798 -8.3889,-4.0213 -13.59947,-7.0003 -5.64495,-3.2278 -11.47152,-6.8778 -17.47731,-10.9536 -5.39821,-3.6627 -10.69595,-7.6466 -15.94285,-11.7914 l 7.93911,0 c 3.15098,2.4002 6.38063,4.7681 9.75501,7.0752 4.26477,2.9172 8.6291,5.6557 13.09079,8.2194 4.52823,2.6011 10.75085,5.7064 15.00884,7.7151 l 0.002,0 1.22173,0.5752 1.22172,-0.5752 0.002,0 c 4.25899,-2.0087 10.48126,-5.1138 15.00884,-7.7151 4.46175,-2.5637 8.82538,-5.3023 13.09078,-8.2194 3.37342,-2.307 6.60393,-4.6749 9.75502,-7.0752 l 7.9412,0 z"
               style="display:inline;fill:#808080;fill-opacity:1;fill-rule:nonzero;stroke:none;stroke-width:1" />
            <rect
               transform="scale(-1,1)"
               y="345.36221"
               x="-438.00244"
               height="96"
               width="96.037987"
               id="rect5753"
               style="color:#000000;display:inline;overflow:visible;visibility:visible;fill:none;stroke:none;stroke-width:4;marker:none;enable-background:accumulate" />
          </g>
        </g>
      </g>
    </g>
    <path
       style="fill:#f2f2f2;fill-opacity:1;stroke:none;stroke-width:0.2;stroke-linecap:round;stroke-linejoin:miter;stroke-miterlimit:4;stroke-dasharray:none;stroke-opacity:1"
       d=""
       id="path4724"
       inkscape:connector-curvature="0" />
    <path
       style="fill:#ffffff;fill-opacity:1;stroke:#ffffff;stroke-width:1.29999995;stroke-linecap:round;stroke-linejoin:miter;stroke-miterlimit:4;stroke-dasharray:none;stroke-opacity:1"
       d="m -23.215002,130.14801 c -13.052436,6.37689 -28.496686,16.26441 -42.079055,26.9393 l -1.328066,1.04378 3.796893,0.0444 3.796893,0.0444 2.272954,-1.70684 c 10.140375,-7.61477 18.726549,-12.91121 30.421661,-18.76581 l 6.476576,-3.24219 5.848415,2.91037 c 11.722082,5.83334 19.181126,10.39121 30.035316,18.35319 l 3.341948,2.45145 3.766145,-0.0445 3.766145,-0.0445 -2.14501,-1.66807 c -11.925679,-9.27403 -24.270668,-17.37084 -36.307568,-23.81332 -2.887727,-1.54559 -8.066584,-4.05292 -8.351101,-4.04317 -0.09287,0.003 -1.583338,0.69686 -3.312146,1.54148 z"
       id="path4728"
       inkscape:connector-curvature="0" />
    <path
       style="fill:#000000;fill-opacity:1;stroke:#ffffff;stroke-width:1.29999995;stroke-linecap:round;stroke-linejoin:miter;stroke-miterlimit:4;stroke-dasharray:none;stroke-opacity:1"
       d="m -23.215002,98.148006 c -13.052436,6.376894 -28.496686,16.264404 -42.079054,26.939304 l -1.328066,1.04377 3.796893,0.0444 3.796893,0.0444 2.272953,-1.70684 c 10.140375,-7.61476 18.726549,-12.9112 30.421661,-18.7658 l 6.476576,-3.24219 5.848415,2.91037 c 11.7220823,5.83333 19.1811263,10.3912 30.035316,18.35318 l 3.341948,2.45146 3.766145,-0.0445 3.766145,-0.0445 -2.14501,-1.66808 c -11.925679,-9.27403 -24.2706677,-17.37083 -36.307568,-23.81331 -2.887727,-1.545594 -8.066584,-4.052924 -8.351101,-4.043174 -0.09287,0.003 -1.583338,0.69685 -3.312146,1.54148 z"
       id="path4728-6"
       inkscape:connector-curvature="0" />
  </g>
</svg>
